<?xml version="1.0" encoding="utf-8"?>
<!-- Generator: Adobe Illustrator 22.0.1, SVG Export Plug-In . SVG Version: 6.00 Build 0)  -->
<svg version="1.1" id="Layer_1" xmlns="http://www.w3.org/2000/svg" xmlns:xlink="http://www.w3.org/1999/xlink" x="0px" y="0px"
	 viewBox="0 0 90 90" style="enable-background:new 0 0 90 90;" xml:space="preserve">
<style type="text/css">
	.st0{fill:#E8E8E8;}
</style>
<path class="st0" d="M80.9,46.7l-36-34L9.1,46.5C8.5,47.1,8.4,48,9,48.6c0.6,0.6,1.5,0.6,2.1,0.1l33.8-31.8l34,32
	c0.3,0.3,0.7,0.4,1,0.4c0.4,0,0.8-0.2,1.1-0.5C81.6,48.2,81.5,47.3,80.9,46.7z"/>
<path class="st0" d="M70.9,44.6L45,20.2L19.1,44.6l-2.3,2.2v26.5c0,1.1,0.9,1.9,1.9,1.9H23V58.1c0-4.2,3.4-7.6,7.6-7.6h0.8
	c4.2,0,7.6,3.4,7.6,7.6v17.1h32.3c1,0,1.9-0.9,1.9-1.9V46.8L70.9,44.6z M69,63.9c0,0.5-0.4,0.9-0.8,0.9H47.6c-0.5,0-0.9-0.4-0.9-0.9
	V50.6c0-0.5,0.4-0.9,0.9-0.9h20.6c0.5,0,0.8,0.4,0.8,0.9V63.9z"/>
</svg>
