<?xml version="1.0" encoding="utf-8"?>
<!-- Generator: Adobe Illustrator 22.0.1, SVG Export Plug-In . SVG Version: 6.00 Build 0)  -->
<svg version="1.1" id="Layer_1" xmlns="http://www.w3.org/2000/svg" xmlns:xlink="http://www.w3.org/1999/xlink" x="0px" y="0px"
	 viewBox="0 0 100 100" style="enable-background:new 0 0 100 100;" xml:space="preserve">
<style type="text/css">
	.st0{fill:#E8E8E8;}
</style>
<rect x="31" y="88.7" class="st0" width="37.5" height="4"/>
<rect x="28.5" y="93.7" class="st0" width="43" height="4"/>
<path class="st0" d="M98,36.7v-5H64.3V19h2.5v-3.4H51.2V9.5h8.6V3.6h-8.6V2.3h-2.5v13.4H33.2V19h2.5v12.6H2v5h3.8v47H2v4h29v-4h3v4
	h32v-4h3v4h29v-4h-3.8v-47H98V36.7z M60.7,19v12.6h-1.8V19H60.7z M38,41.7h10.2v10.2H38V41.7z M50,20.2c2.8,0,5.1,2.3,5.1,5.1
	s-2.3,5.1-5.1,5.1s-5.1-2.3-5.1-5.1S47.2,20.2,50,20.2z M39.3,19h1.8v12.6h-1.8V19z M20.1,66.7H9.9V56.5h10.2
	C20.1,56.5,20.1,66.7,20.1,66.7z M20.1,51.9H9.9V41.7h10.2C20.1,41.7,20.1,51.9,20.1,51.9z M34,66.7H23.8V56.5H34V66.7z M34,51.9
	H23.8V41.7H34V51.9z M62,82.7H38v-26h24V82.7z M62.1,51.9H51.9V41.7h10.2C62.1,41.7,62.1,51.9,62.1,51.9z M76.2,66.7H66V56.5h10.2
	V66.7z M76.2,51.9H66V41.7h10.2V51.9z M90.1,66.7H79.9V56.5h10.2V66.7z M90.1,51.9H79.9V41.7h10.2V51.9z"/>
<g>
	<polygon class="st0" points="51,26.3 46.4,26.3 46.4,24.3 49,24.3 49,20.7 51,20.7 	"/>
</g>
</svg>
