<?xml version="1.0" encoding="utf-8"?>
<!-- Generator: Adobe Illustrator 22.0.1, SVG Export Plug-In . SVG Version: 6.00 Build 0)  -->
<svg version="1.1" xmlns="http://www.w3.org/2000/svg" xmlns:xlink="http://www.w3.org/1999/xlink" x="0px" y="0px"
	 viewBox="0 0 100 100" style="enable-background:new 0 0 100 100;" xml:space="preserve">
<style type="text/css">
	.st0{fill:#E8E8E8;}
</style>
<g id="Layer_2">
</g>
<g id="Layer_1">
	<g>
		<path class="st0" d="M97,87.1h-2.9v-2.7c0-0.3-0.2-0.5-0.5-0.5h-2.9V53.2c0-0.9-0.7-1.6-1.6-1.6H64.8V43H67c1.8,0,2.7-2.2,1.3-3.4
			L51.2,23.7c-0.2-0.1-0.3-0.3-0.5-0.3v-5.7h7.5c0.5,0,1-0.4,1-1v-4.8c0-0.5-0.4-1-1-1h-7.5V10c0-0.3-0.3-0.6-0.6-0.6h-0.5
			C49.3,9.4,49,9.7,49,10v13.4c-0.2,0.1-0.3,0.2-0.5,0.3L31.4,39.6C30.1,40.8,31,43,32.7,43h2.2v8.5H10.6c-0.9,0-1.6,0.7-1.6,1.6
			v30.7H6.1c-0.3,0-0.5,0.2-0.5,0.5V87H2.7c-0.3,0-0.5,0.2-0.5,0.5v2.4c0,0.3,0.2,0.5,0.5,0.5h94c0.3,0,0.5-0.2,0.5-0.5v-2.4
			C97.5,87.4,97.3,87.1,97,87.1z M21.8,78.5h-6.7V71h6.7V78.5z M21.8,64.9h-6.7v-7.5h6.7V64.9z M34.4,78.5h-6.7V71h6.7V78.5z
			 M34.4,64.9h-6.7v-7.5h6.7V64.9z M40.4,57.4h6.7v7.5h-6.7V57.4z M48.9,87.2h-8.5V71h8.5V87.2z M49.3,49.1v1.8
			c-1.9-0.1-3.6-0.9-5-2.1l1.2-1.3l-0.9-0.9l-1.2,1.2c-1.2-1.4-1.9-3.1-2.1-5h1.8v-1.4h-1.8c0.1-1.9,0.9-3.6,2.1-5l1.2,1.2l0.9-1
			l-1.2-1.2c1.5-1.3,3.5-2.1,5.7-2.1s4.2,0.8,5.7,2.1l-1.2,1.2l0.9,1l1.2-1.2c1.2,1.4,1.9,3.1,2.1,5h-1.8v1.4h1.8
			c-0.1,1.9-0.9,3.6-2.1,5l-1.2-1.2l-0.9,0.9l1.2,1.3c-1.4,1.2-3.1,1.9-5,2.1v-1.8H49.3z M59.6,57.4v7.5h-6.7v-7.5H59.6z M59.6,87.2
			h-8.5V71h8.5V87.2z M72.3,78.5h-6.7V71h6.7V78.5z M72.3,64.9h-6.7v-7.5h6.7V64.9z M84.9,78.5h-6.7V71h6.7V78.5z M84.9,64.9h-6.7
			v-7.5h6.7V64.9z"/>
		<polygon class="st0" points="55.1,41.4 50.7,41.4 50.7,35.1 49.3,35.1 49.3,42.8 55.1,42.8 		"/>
	</g>
</g>
</svg>
