<svg xmlns="http://www.w3.org/2000/svg" xmlns:xlink="http://www.w3.org/1999/xlink" version="1.1" x="0px" y="0px" viewBox="0 0 96 96" enable-background="new 0 0 96 96" xml:space="preserve"><g><g><path d="M0,50.904v24.723h26.602V50.904H0z M7.633,71.277H4.45v-6.262h3.183V71.277z M7.633,61.266H4.45v-6.26h3.183V61.266z     M14.896,71.277H11.71v-6.262h3.186V71.277z M14.896,61.266H11.71v-6.26h3.186V61.266z M22.154,71.277h-3.183v-6.262h3.183V71.277    z M22.154,61.266h-3.183v-6.26h3.183V61.266z"></path><path d="M69.398,50.904v24.723H96V50.904H69.398z M77.031,71.277H73.85v-6.262h3.182V71.277z M77.031,61.266H73.85v-6.26h3.182    V61.266z M84.293,71.277h-3.186v-6.262h3.186V71.277z M84.293,61.266h-3.186v-6.26h3.186V61.266z M91.553,71.277h-3.184v-6.262    h3.184V71.277z M91.553,61.266h-3.184v-6.26h3.184V61.266z"></path></g><path d="M28.386,38.276v37.351h39.229V38.276H28.386z M42.38,43.115h3.184v10.703H42.38V43.115z M37.053,69.709h-3.185V59.008   h3.185V69.709z M37.053,53.818h-3.185V43.115h3.185V53.818z M53.621,72.844H42.38V59.008h11.241V72.844z M54.074,53.818h-3.184   V43.115h3.184V53.818z M62.586,69.709h-3.184V59.008h3.184V69.709z M62.586,53.818h-3.184V43.115h3.184V53.818z"></path><polygon points="48,26.773 26.013,36.704 69.988,36.704  "></polygon><rect x="0.002" y="78.609" width="95.998" height="2.635"></rect><rect x="0.002" y="84.146" width="95.998" height="2.635"></rect><path d="M47.264,9.219V9.98c-2.655-0.939-5.312,2.111-7.967,0.356c0,1.998,0,3.995,0,5.992c2.655,1.755,5.312-1.296,7.967-0.356   v13.156h1.473V9.219H47.264z"></path></g></svg>