<?xml version="1.0" encoding="utf-8"?>
<!-- Generator: Adobe Illustrator 22.0.1, SVG Export Plug-In . SVG Version: 6.00 Build 0)  -->
<svg version="1.1" xmlns="http://www.w3.org/2000/svg" xmlns:xlink="http://www.w3.org/1999/xlink" x="0px" y="0px"
	 viewBox="0 0 100 100" style="enable-background:new 0 0 100 100;" xml:space="preserve">
<style type="text/css">
	.st0{fill:#E8E8E8;}
</style>
<g id="Layer_2">
</g>
<g id="Layer_1">
	<g>
		<path class="st0" d="M97.1,77.3h-2.4V75c0-0.2-0.2-0.4-0.4-0.4h-2.4V56.3H65.8v23.8h31.3c0.2,0,0.4-0.2,0.4-0.4v-2
			C97.5,77.4,97.3,77.3,97.1,77.3z M76.4,69h-5.6v-6.3h5.6V69z M86.9,69h-5.6v-6.3h5.6V69z"/>
		<path class="st0" d="M8.1,74.6H5.7c-0.2,0-0.4,0.2-0.4,0.4v2.3H2.9c-0.2,0-0.4,0.2-0.4,0.4v2c0,0.2,0.2,0.4,0.4,0.4h31.3V56.3h-26
			L8.1,74.6L8.1,74.6z M23.6,62.7h5.6V69h-5.6V62.7z M13.1,62.7h5.6V69h-5.6V62.7z"/>
		<path class="st0" d="M65.8,54.8h28.5c1,0,1.7-1,1.3-1.9L87.7,34c-0.2-0.5-0.7-0.9-1.3-0.9H50.5v-6.4h6.3c0.4,0,0.8-0.4,0.8-0.8v-4
			c0-0.4-0.4-0.8-0.8-0.8h-6.3v-0.8c0-0.3-0.2-0.5-0.5-0.5h-0.4c-0.3,0-0.5,0.2-0.5,0.5v12.8H13.5c-0.6,0-1.1,0.3-1.3,0.9L4.3,52.9
			c-0.4,0.9,0.3,1.9,1.3,1.9h28.5v-14h31.7L65.8,54.8L65.8,54.8z"/>
		<polygon class="st0" points="53.5,51.8 50.5,51.8 50.5,47.5 49.5,47.5 49.5,52.8 53.5,52.8 		"/>
		<path class="st0" d="M35.6,80.2h28.7V42.3H35.6V80.2z M58.8,77.3H51V62.7h7.8V77.3z M44,51.8c0.1-1.3,0.6-2.5,1.4-3.4l0.9,0.9
			l0.7-0.7l-0.9-0.9c1-0.9,2.4-1.4,3.9-1.4s2.8,0.5,3.9,1.4L53,48.6l0.7,0.7l0.9-0.9c0.8,0.9,1.3,2.1,1.4,3.4h-1.2v0.9H56
			c-0.1,1.3-0.6,2.5-1.4,3.4l-0.9-0.9L53,55.9l0.9,0.9c-0.9,0.8-2.1,1.3-3.4,1.4V57h-0.9v1.2c-1.3-0.1-2.5-0.6-3.4-1.4l0.9-0.9
			l-0.7-0.7l-0.9,0.9c-0.8-0.9-1.3-2.1-1.4-3.4h1.2v-0.9H44z M41.2,62.7H49v14.6h-7.8V62.7z"/>
	</g>
</g>
</svg>
